<svg xmlns="http://www.w3.org/2000/svg" xmlns:xlink="http://www.w3.org/1999/xlink" width="184.71" height="53.49" viewBox="0 0 184.71 53.49"><defs><style>.cls-1{fill:none;}.cls-2{clip-path:url(#clip-path);}.cls-3{fill:#fff;}.cls-4{fill:#fff100;}.cls-5{fill:#00adee;}.cls-6{fill:#ec1b87;}.cls-7{fill:#a6a8ab;}</style><clipPath id="clip-path" transform="translate(0)"><rect class="cls-1" width="184.71" height="53.49"/></clipPath></defs><title>logo</title><g id="Laag_2" data-name="Laag 2"><g id="Laag_1-2" data-name="Laag 1"><g class="cls-2"><path class="cls-3" d="M9.07,15.64c-2.93-.29-3.33-1.07-3.34-1.7a1.08,1.08,0,0,1,.33-.8,4.15,4.15,0,0,1,2.88-.75,5.85,5.85,0,0,1,4.32,1.52l.47.43,2.91-3.42-.45-.4A10.08,10.08,0,0,0,8.87,8c-4,0-8.08,1.89-8.08,6.1,0,3.49,2.68,5.52,7.88,6,3.19.31,3.61,1.08,3.6,1.87,0,1.37-2,1.74-3.21,1.74A8.12,8.12,0,0,1,3.2,21.21l-.5-.55L0,24.33l.33.37A10.87,10.87,0,0,0,9,28.23c4.9,0,8.21-2.53,8.26-6.31,0-5.56-5.71-6.07-8.17-6.28" transform="translate(0)"/><path class="cls-3" d="M30.74,22.72a4.72,4.72,0,0,1-2,.56c-.92,0-2-.27-2-2.35v-8H32V8.46H26.78V3.16l-5,.53V8.46H18.31v4.48h3.46v8a7.17,7.17,0,0,0,1.87,5.34,6.3,6.3,0,0,0,4.57,1.64h.29a9.13,9.13,0,0,0,3.85-.85l.51-.23-1.5-4.41Z" transform="translate(0)"/><path class="cls-4" d="M37.08,22.14a2.83,2.83,0,0,0-2.92,2.92,2.86,2.86,0,0,0,.92,2.21,3,3,0,0,0,2,.74,2.94,2.94,0,0,0,0-5.87" transform="translate(0)"/><path class="cls-3" d="M68.82,8.13a7.08,7.08,0,0,0-6.08,2.95A6.34,6.34,0,0,0,57,8.1a6.49,6.49,0,0,0-4.59,1.71l-.15-1.42H47.64V27.68h5V17.16c0-2.13,1.28-4.29,3.72-4.29s3.58,2.15,3.58,4.29V27.68h5V17.16c0-2.47,1.58-4.25,3.76-4.25,3.12,0,3.36,3.19,3.36,4.18V27.68h5V17.09c0-5.69-3-9-8.23-9" transform="translate(0)"/><path class="cls-5" d="M83.18,0a2.84,2.84,0,0,0-2.94,2.92,2.81,2.81,0,0,0,.93,2.2,3,3,0,0,0,2,.74,2.85,2.85,0,0,0,2.94-2.94A2.84,2.84,0,0,0,83.18,0" transform="translate(0)"/><rect class="cls-3" x="80.67" y="8.35" width="4.97" height="19.33"/><path class="cls-3" d="M102.33,21.78a5.19,5.19,0,0,1-3.82,1.5,4.84,4.84,0,0,1-5.11-5.21,5,5,0,0,1,5.15-5.28,5.24,5.24,0,0,1,3.62,1.44l.44.43,3.24-3.4-.43-.43A9.31,9.31,0,0,0,98.51,8c-6,0-10.08,4-10.08,10.08,0,7,5.06,10.09,10.08,10.09a9.89,9.89,0,0,0,7.24-3l.44-.44-3.43-3.39Z" transform="translate(0)"/><path class="cls-3" d="M118.25,8.17A7.39,7.39,0,0,0,113,10.09V.85h-5V27.68h5v-10a4.46,4.46,0,0,1,4.35-4.76c2.55,0,3.9,1.54,3.9,4.47v10.3h5V17.34c0-5.83-2.91-9.17-8-9.17" transform="translate(0)"/><path class="cls-6" d="M132.38,0a2.84,2.84,0,0,0-2.94,2.92,2.81,2.81,0,0,0,.94,2.2,3,3,0,0,0,2,.74,2.85,2.85,0,0,0,2.94-2.94A2.84,2.84,0,0,0,132.38,0" transform="translate(0)"/><rect class="cls-3" x="129.88" y="8.35" width="4.97" height="19.33"/><path class="cls-3" d="M147.68,8a9.59,9.59,0,0,0-10,10c0,6.18,4,10.16,10.29,10.16a11.24,11.24,0,0,0,8.17-3.27l.4-.44-3.32-3.23-.42.48A7.06,7.06,0,0,1,148,23.39c-2.67,0-4.57-1.25-5.13-3.32h14.38l.06-.55c.34-3.68-.44-6.69-2.27-8.7A9.59,9.59,0,0,0,147.68,8M143,15.67a4.73,4.73,0,0,1,4.78-3.13c2.54,0,4.19,1.13,4.61,3.13Z" transform="translate(0)"/><rect class="cls-3" x="160.07" y="0.89" width="4.97" height="26.8"/><path class="cls-3" d="M176.55,15.64c-2.94-.29-3.33-1.07-3.35-1.7a1.08,1.08,0,0,1,.33-.8,4.17,4.17,0,0,1,2.88-.75,5.87,5.87,0,0,1,4.33,1.52l.46.43,2.91-3.42-.44-.4A10.12,10.12,0,0,0,176.34,8c-4,0-8.07,1.89-8.07,6.1,0,3.49,2.68,5.52,7.87,6,3.19.31,3.62,1.08,3.6,1.87,0,1.37-2,1.74-3.21,1.74a8.09,8.09,0,0,1-5.85-2.47l-.5-.55-2.71,3.67.33.37a10.87,10.87,0,0,0,8.65,3.53c4.9,0,8.22-2.53,8.26-6.31,0-5.56-5.71-6.07-8.16-6.28" transform="translate(0)"/><path class="cls-7" d="M53.68,36.54c5.66,0,8.24,4.06,8.31,8.18s-2.51,8.46-8.31,8.46H47.42V36.54ZM50,50.61h3.64c4,0,5.75-3,5.68-5.92s-1.77-5.61-5.68-5.61H50Z" transform="translate(0)"/><path class="cls-7" d="M79.45,53.18h-3.1l-5-5.76h-3.5v5.76H65.16V36.52l7.71,0c3.83,0,5.84,2.64,5.84,5.44a4.9,4.9,0,0,1-4.49,5.18l4.94,5.54ZM67.81,39v6h5A2.86,2.86,0,0,0,76,42,3,3,0,0,0,72.87,39Z" transform="translate(0)"/><path class="cls-7" d="M96.05,36.56v9.72c0,4.9-3.21,7.35-7.21,7.2C85.15,53.39,82,51,82,46.28V36.56h2.63v9.72c0,3,1.75,4.66,4.21,4.76,2.65.14,4.59-1.6,4.59-4.76V36.56Z" transform="translate(0)"/><polygon class="cls-7" points="112.68 36.64 105.09 44.57 113.35 53.01 113.35 53.17 110.03 53.17 102.65 45.59 102.65 53.17 100 53.17 100 36.54 102.65 36.54 102.65 43.72 109.4 36.54 112.68 36.54 112.68 36.64"/><polygon class="cls-7" points="128.01 36.64 120.42 44.57 128.68 53.01 128.68 53.17 125.36 53.17 117.98 45.59 117.98 53.17 115.33 53.17 115.33 36.54 117.98 36.54 117.98 43.72 124.72 36.54 128.01 36.54 128.01 36.64"/><polygon class="cls-7" points="142.89 53.17 130.66 53.17 130.66 36.54 142.82 36.54 142.82 39.13 133.31 39.13 133.31 43.62 142.44 43.62 142.44 46.09 133.31 46.09 133.31 50.56 142.89 50.56 142.89 53.17"/><path class="cls-7" d="M160.59,53.18h-3.1l-5-5.76H149v5.76H146.3V36.52l7.71,0c3.83,0,5.85,2.64,5.85,5.44a4.9,4.9,0,0,1-4.5,5.18l4.94,5.54ZM149,39v6h5a2.86,2.86,0,0,0,3.17-3A3,3,0,0,0,154,39Z" transform="translate(0)"/><rect class="cls-7" x="163.36" y="36.54" width="2.63" height="16.63"/><path class="cls-7" d="M182.9,36.54v9.74c0,4.26-2.75,7.2-7.1,7.2-4.12,0-7.07-2.56-7.07-7h2.6c0,2.92,1.59,4.56,4.47,4.56s4.45-2,4.45-4.71V39h-5.32V36.54Z" transform="translate(0)"/></g></g></g></svg>