<svg id="logo_outline_positief" xmlns="http://www.w3.org/2000/svg" width="267" height="37.963" viewBox="0 0 267 37.963">
  <path id="Path_2627" data-name="Path 2627" d="M372.615,311.364h-.8V305.24h-2.1v-.72h5.008v.72h-2.089Z" transform="translate(-280.308 -273.889)" fill="#2a2a29"/>
  <path id="Path_2628" data-name="Path 2628" d="M380.293,311.364h-.8L377,304.52h.9l1.962,5.877h.04l1.954-5.877h.909Z" transform="translate(-281.783 -273.889)" fill="#2a2a29"/>
  <path id="Path_2629" data-name="Path 2629" d="M386.75,311.886l2.647-7.2h.6l-2.647,7.2Z" transform="translate(-283.758 -273.923)" fill="#2a2a29"/>
  <path id="Path_2630" data-name="Path 2630" d="M399.389,311.364h-.8v-3.2h-3.525v3.2h-.8V304.52h.8v2.935h3.525V304.52h.8Z" transform="translate(-285.282 -273.889)" fill="#2a2a29"/>
  <path id="Path_2631" data-name="Path 2631" d="M404.387,311.364h-.8V304.52h.8Z" transform="translate(-287.17 -273.889)" fill="#2a2a29"/>
  <path id="Path_2632" data-name="Path 2632" d="M408.3,311.364h-.8V304.52h3.987v.728H408.3v2.4h2.926v.736H408.3Z" transform="translate(-287.962 -273.889)" fill="#2a2a29"/>
  <path id="Path_2633" data-name="Path 2633" d="M415.517,311.364h-.8V304.52h.8Z" transform="translate(-289.425 -273.889)" fill="#2a2a29"/>
  <path id="Path_2634" data-name="Path 2634" d="M419.16,311.886l2.647-7.2h.59l-2.639,7.2Z" transform="translate(-290.325 -273.923)" fill="#2a2a29"/>
  <path id="Path_2635" data-name="Path 2635" d="M430.719,310.637v.728H426.66V304.52h4.059v.728h-3.253V307.5h3.07v.728h-3.07v2.4Z" transform="translate(-291.844 -273.889)" fill="#2a2a29"/>
  <path id="Path_2636" data-name="Path 2636" d="M438.307,310.637v.728H434.32V304.52h.8v6.117Z" transform="translate(-293.396 -273.889)" fill="#2a2a29"/>
  <path id="Path_2637" data-name="Path 2637" d="M445.359,310.637v.728H441.3V304.52h4.059v.728H442.1V307.5h3.078v.728H442.1v2.4Z" transform="translate(-294.81 -273.889)" fill="#2a2a29"/>
  <path id="Path_2638" data-name="Path 2638" d="M453.784,304.516l-2.56,2.9,2.7,3.942h-1.021l-2.312-3.382-.8.92v2.447H449V304.5h.8v3.342h0l3.038-3.342Z" transform="translate(-296.371 -273.885)" fill="#2a2a29"/>
  <path id="Path_2639" data-name="Path 2639" d="M459.095,311.364h-.8V305.24h-2.1v-.72h4.984v.72h-2.1Z" transform="translate(-297.829 -273.889)" fill="#2a2a29"/>
  <path id="Path_2640" data-name="Path 2640" d="M466.874,304.52a2.672,2.672,0,0,1,.973.168,1.826,1.826,0,0,1,.678.448,2.006,2.006,0,0,1,.383.64,2.213,2.213,0,0,1,.128.8,1.939,1.939,0,0,1-.367,1.239,2.01,2.01,0,0,1-.909.664l1.4,2.918h-.925l-1.268-2.751h-1.722V311.4h-.8v-6.844Zm-1.595,3.374h1.491a1.592,1.592,0,0,0,1.1-.336,1.233,1.233,0,0,0,.375-.959,1.321,1.321,0,0,0-.383-1.015,1.5,1.5,0,0,0-1.053-.344h-1.531Z" transform="translate(-299.501 -273.889)" fill="#2a2a29"/>
  <path id="Path_2641" data-name="Path 2641" d="M472.469,308.459v-1.031a3.3,3.3,0,0,1,.734-2.263,2.778,2.778,0,0,1,3.939,0,3.308,3.308,0,0,1,.734,2.271v1.031a3.2,3.2,0,0,1-.734,2.223,2.588,2.588,0,0,1-1.985.8,2.516,2.516,0,0,1-1.962-.8A3.2,3.2,0,0,1,472.469,308.459Zm.8-1.031v1.031a3.316,3.316,0,0,0,.144,1.015,2.072,2.072,0,0,0,.407.72,1.792,1.792,0,0,0,.6.416,2.156,2.156,0,0,0,1.507,0,1.744,1.744,0,0,0,.606-.416,1.673,1.673,0,0,0,.407-.72,3.319,3.319,0,0,0,.144-1.016v-1.031a2.587,2.587,0,0,0-.526-1.743,1.862,1.862,0,0,0-2.759-.008,2.612,2.612,0,0,0-.526,1.751Z" transform="translate(-301.124 -273.854)" fill="#2a2a29"/>
  <path id="Path_2642" data-name="Path 2642" d="M406.933,283.633c-.55-1.951-1.348-4.917-2.049-7.572v-.08c3.6,0,5.454-1.055,6.379-3.07a4.515,4.515,0,0,0-2.233-6.085,4.835,4.835,0,0,0-6.818,2.351,7.559,7.559,0,0,0-.287,4.757l-.04.088c-2.647.128-4.96,1.159-6.148,3.766-1.308,2.854-.367,6.4,3.19,8.18a8.1,8.1,0,0,0,6.379.528c.223.744.566,2.023.861,3.046h2.512c-.4-1.319-.8-2.551-1.156-3.782a14.513,14.513,0,0,0,5.39-5.037h-2.982A12.234,12.234,0,0,1,406.933,283.633Zm-2.392-13.593c.67-1.471,2.057-2.4,3.588-1.6a2.551,2.551,0,0,1,1,3.534c-.734,1.6-2.392,2.023-4.784,2.2A6.157,6.157,0,0,1,404.541,270.04Zm-4.3,14.264a4.283,4.283,0,0,1-2.009-5.741,4.919,4.919,0,0,1,4.147-2.687c.933,3.462,1.93,6.812,2.456,8.6a5.52,5.52,0,0,1-4.593-.176Z" transform="translate(-285.466 -266.211)" fill="#f6cb36"/>
  <path id="Path_2643" data-name="Path 2643" d="M317.97,3.31V6.732h4.856v14.1h3.748V6.732h4.848V3.31Z" transform="translate(-64.422 -0.672)" fill="#2a2a29"/>
  <path id="Path_2644" data-name="Path 2644" d="M435.036,279.283a3.924,3.924,0,0,0-1.18-.912,4.864,4.864,0,0,0-1.523-.488v-.048a4.433,4.433,0,0,0,2.129-1.4,3.74,3.74,0,0,0,.8-2.463,4.239,4.239,0,0,0-.55-2.3,3.823,3.823,0,0,0-1.443-1.343,5.724,5.724,0,0,0-2-.648,16,16,0,0,0-2.225-.16H422.66v17.519h6.969a10.456,10.456,0,0,0,2.267-.248,6.234,6.234,0,0,0,2.055-.8,4.679,4.679,0,0,0,1.491-1.5,4.319,4.319,0,0,0,.574-2.311,4.68,4.68,0,0,0-.263-1.6A3.913,3.913,0,0,0,435.036,279.283Zm-8.588-6.493h2.544a4.934,4.934,0,0,1,.893.08,2.8,2.8,0,0,1,.8.288,1.6,1.6,0,0,1,.59.56,1.651,1.651,0,0,1,.231.9,1.826,1.826,0,0,1-.207.888,1.6,1.6,0,0,1-.542.592,2.39,2.39,0,0,1-.757.328,3.77,3.77,0,0,1-.853.1h-2.711Zm5.63,9.907a1.879,1.879,0,0,1-.582.64,2.255,2.255,0,0,1-.8.344,3.741,3.741,0,0,1-.877.1h-3.365v-4h2.855a7.292,7.292,0,0,1,.989.072,3.559,3.559,0,0,1,.981.272,1.826,1.826,0,0,1,.757.584,1.6,1.6,0,0,1,.3,1A1.933,1.933,0,0,1,432.077,282.7Z" transform="translate(-291.034 -266.874)" fill="#2a2a29"/>
  <path id="Path_2645" data-name="Path 2645" d="M453.081,278a5.264,5.264,0,0,0,.933-3.158,5.611,5.611,0,0,0-.518-2.559,4.21,4.21,0,0,0-1.387-1.6,5.8,5.8,0,0,0-2.041-.871,11.7,11.7,0,0,0-2.464-.256H441v17.519h3.74v-7h1.842l3.556,7h4.489l-4.322-7.4A4.225,4.225,0,0,0,453.081,278Zm-3.261-2.063a1.715,1.715,0,0,1-.75.576,3.186,3.186,0,0,1-1.021.224h-3.285v-4h2.456a7.593,7.593,0,0,1,1.029.072,3.08,3.08,0,0,1,.941.28,1.812,1.812,0,0,1,.67.608,1.907,1.907,0,0,1,.263,1.063,1.779,1.779,0,0,1-.3,1.175Z" transform="translate(-294.75 -266.882)" fill="#2a2a29"/>
  <path id="Path_2646" data-name="Path 2646" d="M474,271.447a8.225,8.225,0,0,0-2.9-1.839,10.753,10.753,0,0,0-7.352,0,8.3,8.3,0,0,0-2.9,1.839,8.436,8.436,0,0,0-1.914,2.91,10.926,10.926,0,0,0,0,7.62,8.256,8.256,0,0,0,4.816,4.757,10.88,10.88,0,0,0,7.352,0,8.351,8.351,0,0,0,2.9-1.847,8.252,8.252,0,0,0,1.914-2.91,10.926,10.926,0,0,0,0-7.62A8.325,8.325,0,0,0,474,271.447Zm-1.667,8.987a5.207,5.207,0,0,1-1.069,1.783,4.856,4.856,0,0,1-1.667,1.175,5.886,5.886,0,0,1-4.346,0,4.783,4.783,0,0,1-1.674-1.175,5.208,5.208,0,0,1-1.069-1.783,7,7,0,0,1,0-4.518,5.169,5.169,0,0,1,1.069-1.791,4.785,4.785,0,0,1,1.651-1.135,5.782,5.782,0,0,1,4.346,0,4.856,4.856,0,0,1,1.667,1.175,5.166,5.166,0,0,1,1.069,1.791,7,7,0,0,1,0,4.518Z" transform="translate(-298.243 -266.762)" fill="#2a2a29"/>
  <path id="Path_2647" data-name="Path 2647" d="M229.528,13.712H236.9V10.146h-7.376V6.876h7.806V3.31H225.78V20.837h11.993V17.271h-8.245Z" transform="translate(-45.744 -0.672)" fill="#2a2a29"/>
  <path id="Path_2648" data-name="Path 2648" d="M521.518,269.514,515.138,284.8l-6.252-7.148,7.567-8.14h-4.9l-6.6,7.276v-7.276H501.2v17.519h3.748v-8.34l6.913,8.316h6.475l1.419-3.71h6.6l1.467,3.71h4.226l-7.4-17.519Zm-.63,10.546,2.065-5.445,2.089,5.445Z" transform="translate(-306.946 -266.868)" fill="#2a2a29"/>
  <path id="Path_2649" data-name="Path 2649" d="M287.108,13.712h7.376V10.146h-7.376V6.876h7.806V3.31H283.36V20.837h11.985V17.271h-8.237Z" transform="translate(-57.41 -0.672)" fill="#2a2a29"/>
  <path id="Path_2650" data-name="Path 2650" d="M570.6,278a5.263,5.263,0,0,0,.933-3.158,5.708,5.708,0,0,0-.518-2.559,4.211,4.211,0,0,0-1.388-1.6,5.8,5.8,0,0,0-2.041-.872,11.7,11.7,0,0,0-2.464-.256H558.54v17.519h3.748v-7h1.85l3.557,7h4.489l-4.322-7.4A4.224,4.224,0,0,0,570.6,278Zm-3.261-2.063a1.716,1.716,0,0,1-.749.576,3.185,3.185,0,0,1-1.021.224h-3.285v-4h2.456a7.593,7.593,0,0,1,1.029.072,3.083,3.083,0,0,1,.941.28,1.812,1.812,0,0,1,.67.608,1.906,1.906,0,0,1,.263,1.063A1.835,1.835,0,0,1,567.343,275.941Z" transform="translate(-318.564 -266.882)" fill="#2a2a29"/>
  <path id="Path_2651" data-name="Path 2651" d="M31.545,9.861,27.821,3.32H21.027L18.069,14.826h-.048L14.369,3.32h-3.6L7.081,14.53H7.033L4.226,3.32H0L5.215,20.807H8.548L12.423,8.7h.056l3.875,12.106h3.453l4.545-15.44,5.255,7.98v7.46h3.875v-7.46L40.093,3.32H35.5Z" transform="translate(0 -0.674)" fill="#2a2a29"/>
  <path id="Path_2652" data-name="Path 2652" d="M63.458,15.474H63.41L55.931,3.32H50.66V20.807h3.875V8.357h.048l7.679,12.449h5.071V3.32H63.458Z" transform="translate(-10.264 -0.674)" fill="#2a2a29"/>
  <path id="Path_2653" data-name="Path 2653" d="M337.737,269.52l-7.607,17.487H334.4l1.467-3.7H342.7l1.515,3.7H348.6l-7.655-17.487Zm-.646,10.522,2.137-5.429,2.161,5.429Z" transform="translate(-272.287 -266.874)" fill="#2a2a29"/>
  <path id="Path_2654" data-name="Path 2654" d="M109.458,15.474h-.048L101.931,3.32H96.66V20.807h3.875V8.357h.056l7.679,12.449h5.071V3.32h-3.883Z" transform="translate(-19.584 -0.674)" fill="#2a2a29"/>
  <path id="Path_2655" data-name="Path 2655" d="M118.79,3.32V6.726h5.024V20.807h3.875V6.726h5.024V3.32Z" transform="translate(-24.067 -0.674)" fill="#2a2a29"/>
</svg>
