<svg xmlns="http://www.w3.org/2000/svg" viewBox="0 0 647.5 198.8"><path d="M136.2 51.5h18.6v39.8l33.4-39.8H211l-38 43.6 39.6 48.9h-24.2L155 101.1h-.3V144h-18.6V51.5zm87.7 0h18.6v53.4c0 15.8 5 26.1 19.2 26.1s19.2-10.3 19.2-26.1V51.5h18.6v59.1c0 24.8-14.1 35-37.8 35-23.7 0-37.8-10.2-37.8-35V51.5zm95.7 0h18.6v53.4c0 15.8 5 26.1 19.2 26.1s19.2-10.3 19.2-26.1V51.5h18.6v59.1c0 24.8-14 35-37.8 35-23.7 0-37.8-10.2-37.8-35V51.5zm94.8 0h20c19.9 0 43.6-.7 43.6 25 0 10.9-7.3 19.9-19.1 21.5v.3c5 .4 7.9 5.4 9.8 9.5l14.8 36.2h-20.7l-11.1-28.9c-2.7-6.9-5-9.5-12.9-9.5h-6V144h-18.5V51.5zM432.9 91h6.1c9.1 0 19.6-1.3 19.6-12.9C458.6 67 448.3 66 439 66h-6.1v25zM496 51.5h22.8l35.3 69.2h.3V51.5h17.8V144h-22.7L514 74.8h-.3V144H496V51.5zm96.6 0h54.6v14.6h-36v22.8h33v14.6h-33v26h36.3V144h-54.9V51.5z"/><path fill="#ED1556" d="M57.2 0h61.1L65 99.4l53.3 99.4H57.2L0 99.4 57.2 0z"/></svg>